<!DOCTYPE svg PUBLIC "-//W3C//DTD SVG 1.1//EN" "http://www.w3.org/Graphics/SVG/1.1/DTD/svg11.dtd">

<!-- Uploaded to: SVG Repo, www.svgrepo.com, Transformed by: SVG Repo Mixer Tools -->
<svg fill="#000000" height="36px" width="36px" version="1.1" id="Icons" xmlns="http://www.w3.org/2000/svg" xmlns:xlink="http://www.w3.org/1999/xlink" viewBox="0 0 32 32" xml:space="preserve">

<g id="SVGRepo_bgCarrier" stroke-width="0"/>

<g id="SVGRepo_tracerCarrier" stroke-linecap="round" stroke-linejoin="round"/>

<g id="SVGRepo_iconCarrier"> <path d="M23,8h-5c-0.6,0-1,0.4-1,1v5L9.6,8.2C9.3,8,8.9,7.9,8.6,8.1C8.2,8.3,8,8.6,8,9v14c0,0.4,0.2,0.7,0.6,0.9C8.7,24,8.9,24,9,24 c0.2,0,0.4-0.1,0.6-0.2L17,18v5c0,0.6,0.4,1,1,1h5c0.6,0,1-0.4,1-1V9C24,8.4,23.6,8,23,8z"/> </g>

</svg>